<?xml version="1.0" standalone="no" ?>
<!DOCTYPE svg PUBLIC "-//W3C//DTD SVG 1.1//EN" "http://www.w3.org/Graphics/SVG/1.1/DTD/svg11.dtd">
<svg width="221.37px" height="183.922px" xmlns="http://www.w3.org/2000/svg" version="1.1" >
	<path d = "M104.168,19.0543 L99.4014,18.7993 L93.6146,19.1598 L86.7724,20.2328 L78.8397,22.1148 L70.3617,24.8499 L61.8838,28.4821 L53.9511,33.0552 L47.1089,38.6134 L41.4276,45.095 L36.9776,52.4385 L33.8291,60.5822 L32.0526,69.4647 L31.5338,78.8221 L32.1582,88.3906 L33.8115,97.9063 L36.3796,107.105 L39.8094,115.654 L44.0484,123.217 L49.0437,129.461 L54.7426,134.052 L60.8724,137.262 L67.1605,139.364 L73.3343,140.63 L79.1211,141.334 L84.6969,141.457 L90.2374,140.982 L95.9187,139.892 L101.917,138.168 L107.95,136.004 L113.737,133.595 L118.996,131.132 L123.446,128.81 L127.535,126.278 L131.713,123.182 L136.426,119.172 L142.125,113.895 L148.202,107.959 L154.051,101.969 L159.064,96.5344 L162.634,92.2602 L164.974,88.8567 L166.293,86.0337 L166.803,83.5008 L166.715,80.968 L166.055,78.6199 L164.85,76.6411 L163.127,75.2164 L160.911,74.5304 L158.246,74.4248 L155.176,74.7415 L151.747,75.3219 L148,76.0079 L144.148,76.7818 L140.402,77.6261 L136.972,78.5231 L134.07,79.4553 L131.66,80.282 L129.707,80.8625 L128.177,81.0559 L127.034,80.7218 L126.242,79.9918 L125.767,78.998 L125.574,77.8723 L125.627,76.7466 L125.855,75.6561 L126.19,74.6359 L126.559,73.7213 L126.893,72.9474 L127.28,72.279 L127.808,71.6809 L128.564,71.1181 L129.637,70.5552 L131.053,70.0012 L132.838,69.4647 L135.019,68.9546 L137.623,68.4797 L140.613,68.0576 L143.955,67.7058 L147.613,67.442 L151.553,67.2837 L155.502,67.2309 L159.187,67.2837 L162.335,67.442 L164.675,67.7058 L166.398,68.1279 L167.7,68.7612 L168.773,69.6582 L169.811,70.8718 L170.769,72.3581 L171.605,74.0731 L172.273,75.9727 L172.73,78.013 L173.012,80.1413 L173.153,82.3048 L173.188,84.4506 L173.153,86.5262 L173.1,88.5665 L173.082,90.6068 L173.153,92.6824 L173.364,94.8282 L173.9,97.0357 L174.947,99.2959 L176.688,101.6 L179.309,103.939 L182.668,106.006 L186.626,107.492 L191.041,108.09 L195.772,107.492 L200.46,105.804 L204.743,103.13 L208.26,99.5773 L210.653,95.2504 L212.112,90.5365 L212.834,85.8226 L213.009,81.4957 L212.834,77.9427 L212.227,75.0141 L211.11,72.5604 L209.404,70.4321 L207.029,68.4797 L204.417,66.501 L201.999,64.2935 L200.205,61.6551 L199.466,58.3836 L199.431,54.6987 L199.747,50.8203 L200.064,46.9682 L200.029,43.3625 L199.651,39.9502 L198.938,36.6786 L197.9,33.495 L196.546,30.3465 L194.937,27.3652 L193.134,24.6828 L191.199,22.4314 L189.194,20.7429 L187.013,19.4237 L184.55,18.2804 L181.701,17.1195 L178.359,15.7476 L173.909,14.2613 L167.735,12.7574 L159.222,11.3327 L147.754,10.0839 L134.219,9.10766 L119.506,8.50084 L104.502,8.36013 L90.0967,8.78227 L76.5003,9.94314 L63.9241,12.0187 L52.5791,15.1847 L42.6765,19.6172 L34.1809,25.36 L27.0573,32.4572 L21.2705,40.9528 L16.7853,50.8906 L13.4346,61.7783 L11.0512,73.1233 L9.46822,84.4331 L8.51841,95.2152 L8.36011,105.549 L9.15162,115.513 L11.0512,125.187 L14.2173,134.65 L19.0719,143.585 L26.0372,151.676 L35.5353,158.606 L47.9884,164.059 L62.3499,168.219 L77.5733,171.271 L92.612,173.399 L106.419,174.788 L119.163,175.492 L131.009,175.562 L142.125,175.052 L152.679,174.014 L162.45,172.3 L171.218,169.758 L178.763,166.24 L184.867,161.597 L189.44,156.241 L192.395,150.586 L193.644,145.045 L193.099,140.032 L191.093,135.811 L187.963,132.645 L184.04,130.798 L179.661,130.534 L175.052,131.466 L170.444,133.208 L166.064,135.371 L162.142,137.57 L158.211,139.821 L153.805,142.143 L148.457,144.553 L141.703,147.068 L133.955,149.548 L125.627,151.852 L117.131,153.84 L108.882,155.37 L100.923,156.487 L93.2979,157.234 L86.0512,157.657 L79.2267,157.797 L72.7275,157.551 L66.457,156.812 L60.3184,155.476 L54.2149,153.435 L48.2874,150.216 L42.6765,145.344 L37.5229,138.344 L32.9673,128.74 L29.1153,117.413 L26.0723,105.241 L23.9441,93.1045 L22.8359,81.8826 L22.8711,71.5226 L24.1727,61.9718 L26.8639,53.1772 L31.0676,45.0862 L36.8281,37.7955 L44.1891,31.4019 L53.1948,26.002 L63.8889,21.6927 L75.8759,18.509 L88.76,16.4863 L102.145,15.6596 L115.636,16.0642 L128.907,17.4713 L141.633,19.6523 L153.488,22.3786 L164.147,25.4216 L173.364,29.001 L180.892,33.3367 L186.485,38.6486 L189.897,45.1566 L191.832,52.2186 L192.993,59.1927 L194.084,65.4368 L195.807,70.309 L197.865,74.2138 L199.958,77.5557 L201.788,80.7393 L203.054,84.1692 L203.687,87.6519 L203.617,90.9938 L202.773,94.0015 L201.084,96.4816 L198.806,98.3109 L196.194,99.3662 L193.503,99.5245 L190.988,98.6627 L188.64,96.7982 L186.45,93.9488 L184.41,90.1319 L182.51,85.3653 L180.505,80.1325 L178.148,74.9173 L175.193,70.2035 L171.394,66.4746 L166.847,63.5987 L161.649,61.4441 L155.898,59.8786 L149.689,58.7705 L143.251,58.1549 L136.813,58.067 L130.604,58.5419 L124.853,59.6148 L119.646,61.2858 L115.073,63.5548 L111.221,66.4218 L108.178,69.8869 L105.681,73.862 L103.464,78.2593 L101.266,82.9907 L98.8209,87.9685 L96.2177,92.8407 L93.5442,97.2555 L90.8882,100.861 L88.3378,103.306 L85.8314,104.546 L83.3073,104.537 L80.7041,103.236 L77.9602,100.597 L75.3219,96.9917 L73.0353,92.7879 L71.3467,88.3554 L70.5024,84.0637 L70.4585,79.9478 L71.1708,76.043 L72.5956,72.3845 L74.6887,69.0074 L77.3094,65.9381 L80.3172,63.203 L83.5712,60.8285 L86.9307,58.8409 L90.4221,57.2139 L94.0719,55.9211 L97.9063,54.9361 L101.952,54.2325 L106.534,53.7225 L111.978,53.3179 L118.609,52.9309 L126.752,52.4736 L135.811,52.2186 L145.186,52.4384 L154.279,53.4058 L162.494,55.3934 L169.696,57.6888 L175.756,59.5796 L180.54,60.3536 L183.917,59.2982 L186.125,56.9501 L187.4,53.8456 L187.98,50.5212 L188.103,47.5135 L187.725,44.8048 L186.802,42.3775 L185.289,40.214 L183.143,38.2968 L180.566,36.661 L177.761,35.3418 L174.929,34.3744 L172.273,33.794 L169.749,33.5126 L167.313,33.4422 L164.921,33.495 L162.529,33.5829 L160.049,33.75 L157.393,34.0402 L154.473,34.4975 L151.201,35.1659 L147.666,35.8431 L143.955,36.3268 L140.155,36.4148 L136.356,35.9047 L132.654,34.9373 L129.145,33.6533 L125.926,32.1934 L123.094,30.6983 L120.605,29.1592 L118.415,27.5674 L116.48,25.9141 L114.757,24.1903 L112.954,22.5194 L110.782,21.0243 L107.95,19.8282 z" fill="rgb(192,192,192)" stroke-width="0.836011" stroke="rgb(0,0,0)" />
	<path d = "M164.921,33.495 L167.313,33.4422 L169.749,33.5126 z" fill="rgb(0,255,0)" stroke-width="0.418005" stroke="rgb(0,128,0)" />
	<path d = "M169.749,33.5126 L164.921,33.495 L162.529,33.5829 z" fill="rgb(0,255,0)" stroke-width="0.418005" stroke="rgb(0,128,0)" />
	<path d = "M162.529,33.5829 L169.749,33.5126 L160.049,33.75 z" fill="rgb(0,255,0)" stroke-width="0.418005" stroke="rgb(0,128,0)" />
	<path d = "M160.049,33.75 L169.749,33.5126 L172.273,33.794 z" fill="rgb(0,255,0)" stroke-width="0.418005" stroke="rgb(0,128,0)" />
	<path d = "M172.273,33.794 L160.049,33.75 L157.393,34.0402 z" fill="rgb(0,255,0)" stroke-width="0.418005" stroke="rgb(0,128,0)" />
	<path d = "M157.393,34.0402 L172.273,33.794 L174.929,34.3744 z" fill="rgb(0,255,0)" stroke-width="0.418005" stroke="rgb(0,128,0)" />
	<path d = "M174.929,34.3744 L157.393,34.0402 L154.473,34.4975 z" fill="rgb(0,255,0)" stroke-width="0.418005" stroke="rgb(0,128,0)" />
	<path d = "M154.473,34.4975 L174.929,34.3744 L151.201,35.1659 z" fill="rgb(0,255,0)" stroke-width="0.418005" stroke="rgb(0,128,0)" />
	<path d = "M151.201,35.1659 L174.929,34.3744 L177.761,35.3418 z" fill="rgb(0,255,0)" stroke-width="0.418005" stroke="rgb(0,128,0)" />
	<path d = "M177.761,35.3418 L151.201,35.1659 L147.666,35.8431 z" fill="rgb(0,255,0)" stroke-width="0.418005" stroke="rgb(0,128,0)" />
	<path d = "M147.666,35.8431 L177.761,35.3418 L143.955,36.3268 z" fill="rgb(0,255,0)" stroke-width="0.418005" stroke="rgb(0,128,0)" />
	<path d = "M140.155,36.4148 L143.955,36.3268 L180.566,36.661 z" fill="rgb(0,255,0)" stroke-width="0.418005" stroke="rgb(0,128,0)" />
	<path d = "M143.955,36.3268 L177.761,35.3418 L180.566,36.661 z" fill="rgb(0,255,0)" stroke-width="0.418005" stroke="rgb(0,128,0)" />
	<path d = "M135.811,52.2186 L187.98,50.5212 L145.186,52.4384 z" fill="rgb(0,255,0)" stroke-width="0.418005" stroke="rgb(0,128,0)" />
	<path d = "M145.186,52.4384 L187.98,50.5212 L154.279,53.4058 z" fill="rgb(0,255,0)" stroke-width="0.418005" stroke="rgb(0,128,0)" />
	<path d = "M154.279,53.4058 L187.98,50.5212 L187.4,53.8456 z" fill="rgb(0,255,0)" stroke-width="0.418005" stroke="rgb(0,128,0)" />
	<path d = "M187.4,53.8456 L154.279,53.4058 L162.494,55.3934 z" fill="rgb(0,255,0)" stroke-width="0.418005" stroke="rgb(0,128,0)" />
	<path d = "M162.494,55.3934 L187.4,53.8456 L186.125,56.9501 z" fill="rgb(0,255,0)" stroke-width="0.418005" stroke="rgb(0,128,0)" />
	<path d = "M186.125,56.9501 L162.494,55.3934 L169.696,57.6888 z" fill="rgb(0,255,0)" stroke-width="0.418005" stroke="rgb(0,128,0)" />
	<path d = "M169.696,57.6888 L186.125,56.9501 L183.917,59.2982 z" fill="rgb(0,255,0)" stroke-width="0.418005" stroke="rgb(0,128,0)" />
	<path d = "M183.917,59.2982 L169.696,57.6888 L175.756,59.5796 z" fill="rgb(0,255,0)" stroke-width="0.418005" stroke="rgb(0,128,0)" />
	<path d = "M175.756,59.5796 L183.917,59.2982 L180.54,60.3536 z" fill="rgb(0,255,0)" stroke-width="0.418005" stroke="rgb(0,128,0)" />
	<path d = "M143.251,58.1549 L136.813,58.067 L130.604,58.5419 z" fill="rgb(0,255,0)" stroke-width="0.418005" stroke="rgb(0,128,0)" />
	<path d = "M130.604,58.5419 L143.251,58.1549 L149.689,58.7705 z" fill="rgb(0,255,0)" stroke-width="0.418005" stroke="rgb(0,128,0)" />
	<path d = "M149.689,58.7705 L130.604,58.5419 L124.853,59.6148 z" fill="rgb(0,255,0)" stroke-width="0.418005" stroke="rgb(0,128,0)" />
	<path d = "M124.853,59.6148 L149.689,58.7705 L155.898,59.8786 z" fill="rgb(0,255,0)" stroke-width="0.418005" stroke="rgb(0,128,0)" />
	<path d = "M155.898,59.8786 L124.853,59.6148 L119.646,61.2858 z" fill="rgb(0,255,0)" stroke-width="0.418005" stroke="rgb(0,128,0)" />
	<path d = "M119.646,61.2858 L155.898,59.8786 L161.649,61.4441 z" fill="rgb(0,255,0)" stroke-width="0.418005" stroke="rgb(0,128,0)" />
	<path d = "M161.649,61.4441 L119.646,61.2858 L115.073,63.5548 z" fill="rgb(0,255,0)" stroke-width="0.418005" stroke="rgb(0,128,0)" />
	<path d = "M115.073,63.5548 L161.649,61.4441 L166.847,63.5987 z" fill="rgb(0,255,0)" stroke-width="0.418005" stroke="rgb(0,128,0)" />
	<path d = "M166.847,63.5987 L115.073,63.5548 L111.221,66.4218 z" fill="rgb(0,255,0)" stroke-width="0.418005" stroke="rgb(0,128,0)" />
	<path d = "M111.221,66.4218 L166.847,63.5987 L171.394,66.4746 z" fill="rgb(0,255,0)" stroke-width="0.418005" stroke="rgb(0,128,0)" />
	<path d = "M171.394,66.4746 L111.221,66.4218 L155.502,67.2309 z" fill="rgb(0,255,0)" stroke-width="0.418005" stroke="rgb(0,128,0)" />
	<path d = "M155.502,67.2309 L111.221,66.4218 L151.553,67.2837 z" fill="rgb(0,255,0)" stroke-width="0.418005" stroke="rgb(0,128,0)" />
	<path d = "M151.553,67.2837 L111.221,66.4218 L147.613,67.442 z" fill="rgb(0,255,0)" stroke-width="0.418005" stroke="rgb(0,128,0)" />
	<path d = "M147.613,67.442 L111.221,66.4218 L143.955,67.7058 z" fill="rgb(0,255,0)" stroke-width="0.418005" stroke="rgb(0,128,0)" />
	<path d = "M143.955,67.7058 L111.221,66.4218 L140.613,68.0576 z" fill="rgb(0,255,0)" stroke-width="0.418005" stroke="rgb(0,128,0)" />
	<path d = "M140.613,68.0576 L111.221,66.4218 L137.623,68.4797 z" fill="rgb(0,255,0)" stroke-width="0.418005" stroke="rgb(0,128,0)" />
	<path d = "M137.623,68.4797 L111.221,66.4218 L135.019,68.9546 z" fill="rgb(0,255,0)" stroke-width="0.418005" stroke="rgb(0,128,0)" />
	<path d = "M135.019,68.9546 L111.221,66.4218 L132.838,69.4647 z" fill="rgb(0,255,0)" stroke-width="0.418005" stroke="rgb(0,128,0)" />
	<path d = "M132.838,69.4647 L111.221,66.4218 L108.178,69.8869 z" fill="rgb(0,255,0)" stroke-width="0.418005" stroke="rgb(0,128,0)" />
	<path d = "M108.178,69.8869 L132.838,69.4647 L131.053,70.0012 z" fill="rgb(0,255,0)" stroke-width="0.418005" stroke="rgb(0,128,0)" />
	<path d = "M131.053,70.0012 L108.178,69.8869 L129.637,70.5552 z" fill="rgb(0,255,0)" stroke-width="0.418005" stroke="rgb(0,128,0)" />
	<path d = "M129.637,70.5552 L108.178,69.8869 L128.564,71.1181 z" fill="rgb(0,255,0)" stroke-width="0.418005" stroke="rgb(0,128,0)" />
	<path d = "M128.564,71.1181 L108.178,69.8869 L127.808,71.6809 z" fill="rgb(0,255,0)" stroke-width="0.418005" stroke="rgb(0,128,0)" />
	<path d = "M127.808,71.6809 L108.178,69.8869 L127.28,72.279 z" fill="rgb(0,255,0)" stroke-width="0.418005" stroke="rgb(0,128,0)" />
	<path d = "M127.28,72.279 L108.178,69.8869 L126.893,72.9474 z" fill="rgb(0,255,0)" stroke-width="0.418005" stroke="rgb(0,128,0)" />
	<path d = "M126.893,72.9474 L108.178,69.8869 L126.559,73.7213 z" fill="rgb(0,255,0)" stroke-width="0.418005" stroke="rgb(0,128,0)" />
	<path d = "M126.559,73.7213 L108.178,69.8869 L105.681,73.862 z" fill="rgb(0,255,0)" stroke-width="0.418005" stroke="rgb(0,128,0)" />
	<path d = "M105.681,73.862 L126.559,73.7213 L126.19,74.6359 z" fill="rgb(0,255,0)" stroke-width="0.418005" stroke="rgb(0,128,0)" />
	<path d = "M126.19,74.6359 L105.681,73.862 L125.855,75.6561 z" fill="rgb(0,255,0)" stroke-width="0.418005" stroke="rgb(0,128,0)" />
	<path d = "M125.855,75.6561 L105.681,73.862 L125.627,76.7466 z" fill="rgb(0,255,0)" stroke-width="0.418005" stroke="rgb(0,128,0)" />
	<path d = "M125.627,76.7466 L105.681,73.862 L125.574,77.8723 z" fill="rgb(0,255,0)" stroke-width="0.418005" stroke="rgb(0,128,0)" />
	<path d = "M125.574,77.8723 L105.681,73.862 L103.464,78.2593 z" fill="rgb(0,255,0)" stroke-width="0.418005" stroke="rgb(0,128,0)" />
	<path d = "M103.464,78.2593 L125.574,77.8723 L125.767,78.998 z" fill="rgb(0,255,0)" stroke-width="0.418005" stroke="rgb(0,128,0)" />
	<path d = "M125.767,78.998 L103.464,78.2593 L126.242,79.9918 z" fill="rgb(0,255,0)" stroke-width="0.418005" stroke="rgb(0,128,0)" />
	<path d = "M126.242,79.9918 L103.464,78.2593 L127.034,80.7218 z" fill="rgb(0,255,0)" stroke-width="0.418005" stroke="rgb(0,128,0)" />
	<path d = "M127.034,80.7218 L103.464,78.2593 L128.177,81.0559 z" fill="rgb(0,255,0)" stroke-width="0.418005" stroke="rgb(0,128,0)" />
	<path d = "M128.177,81.0559 L103.464,78.2593 L101.266,82.9907 z" fill="rgb(0,255,0)" stroke-width="0.418005" stroke="rgb(0,128,0)" />
	<path d = "M119.506,8.50084 L104.502,8.36013 L90.0967,8.78227 z" fill="rgb(0,255,0)" stroke-width="0.418005" stroke="rgb(0,128,0)" />
	<path d = "M90.0967,8.78227 L119.506,8.50084 L134.219,9.10766 z" fill="rgb(0,255,0)" stroke-width="0.418005" stroke="rgb(0,128,0)" />
	<path d = "M134.219,9.10766 L90.0967,8.78227 L76.5003,9.94314 z" fill="rgb(0,255,0)" stroke-width="0.418005" stroke="rgb(0,128,0)" />
	<path d = "M76.5003,9.94314 L134.219,9.10766 L147.754,10.0839 z" fill="rgb(0,255,0)" stroke-width="0.418005" stroke="rgb(0,128,0)" />
	<path d = "M147.754,10.0839 L76.5003,9.94314 L159.222,11.3327 z" fill="rgb(0,255,0)" stroke-width="0.418005" stroke="rgb(0,128,0)" />
	<path d = "M159.222,11.3327 L76.5003,9.94314 L63.9241,12.0187 z" fill="rgb(0,255,0)" stroke-width="0.418005" stroke="rgb(0,128,0)" />
	<path d = "M63.9241,12.0187 L159.222,11.3327 L167.735,12.7574 z" fill="rgb(0,255,0)" stroke-width="0.418005" stroke="rgb(0,128,0)" />
	<path d = "M167.735,12.7574 L63.9241,12.0187 L173.909,14.2613 z" fill="rgb(0,255,0)" stroke-width="0.418005" stroke="rgb(0,128,0)" />
	<path d = "M173.909,14.2613 L63.9241,12.0187 L52.5791,15.1847 z" fill="rgb(0,255,0)" stroke-width="0.418005" stroke="rgb(0,128,0)" />
	<path d = "M52.5791,15.1847 L173.909,14.2613 L102.145,15.6596 z" fill="rgb(0,255,0)" stroke-width="0.418005" stroke="rgb(0,128,0)" />
	<path d = "M102.145,15.6596 L173.909,14.2613 L178.359,15.7476 z" fill="rgb(0,255,0)" stroke-width="0.418005" stroke="rgb(0,128,0)" />
	<path d = "M178.359,15.7476 L102.145,15.6596 L115.636,16.0642 z" fill="rgb(0,255,0)" stroke-width="0.418005" stroke="rgb(0,128,0)" />
	<path d = "M115.636,16.0642 L178.359,15.7476 L181.701,17.1195 z" fill="rgb(0,255,0)" stroke-width="0.418005" stroke="rgb(0,128,0)" />
	<path d = "M181.701,17.1195 L115.636,16.0642 L128.907,17.4713 z" fill="rgb(0,255,0)" stroke-width="0.418005" stroke="rgb(0,128,0)" />
	<path d = "M128.907,17.4713 L181.701,17.1195 L184.55,18.2804 z" fill="rgb(0,255,0)" stroke-width="0.418005" stroke="rgb(0,128,0)" />
	<path d = "M184.55,18.2804 L128.907,17.4713 L187.013,19.4237 z" fill="rgb(0,255,0)" stroke-width="0.418005" stroke="rgb(0,128,0)" />
	<path d = "M187.013,19.4237 L128.907,17.4713 L141.633,19.6523 z" fill="rgb(0,255,0)" stroke-width="0.418005" stroke="rgb(0,128,0)" />
	<path d = "M141.633,19.6523 L187.013,19.4237 L189.194,20.7429 z" fill="rgb(0,255,0)" stroke-width="0.418005" stroke="rgb(0,128,0)" />
	<path d = "M189.194,20.7429 L141.633,19.6523 L153.488,22.3786 z" fill="rgb(0,255,0)" stroke-width="0.418005" stroke="rgb(0,128,0)" />
	<path d = "M153.488,22.3786 L189.194,20.7429 L191.199,22.4314 z" fill="rgb(0,255,0)" stroke-width="0.418005" stroke="rgb(0,128,0)" />
	<path d = "M191.199,22.4314 L153.488,22.3786 L193.134,24.6828 z" fill="rgb(0,255,0)" stroke-width="0.418005" stroke="rgb(0,128,0)" />
	<path d = "M193.134,24.6828 L153.488,22.3786 L164.147,25.4216 z" fill="rgb(0,255,0)" stroke-width="0.418005" stroke="rgb(0,128,0)" />
	<path d = "M164.147,25.4216 L193.134,24.6828 L194.937,27.3652 z" fill="rgb(0,255,0)" stroke-width="0.418005" stroke="rgb(0,128,0)" />
	<path d = "M194.937,27.3652 L164.147,25.4216 L173.364,29.001 z" fill="rgb(0,255,0)" stroke-width="0.418005" stroke="rgb(0,128,0)" />
	<path d = "M173.364,29.001 L194.937,27.3652 L196.546,30.3465 z" fill="rgb(0,255,0)" stroke-width="0.418005" stroke="rgb(0,128,0)" />
	<path d = "M196.546,30.3465 L173.364,29.001 L180.892,33.3367 z" fill="rgb(0,255,0)" stroke-width="0.418005" stroke="rgb(0,128,0)" />
	<path d = "M180.892,33.3367 L196.546,30.3465 L197.9,33.495 z" fill="rgb(0,255,0)" stroke-width="0.418005" stroke="rgb(0,128,0)" />
	<path d = "M197.9,33.495 L180.892,33.3367 L198.938,36.6786 z" fill="rgb(0,255,0)" stroke-width="0.418005" stroke="rgb(0,128,0)" />
	<path d = "M198.938,36.6786 L180.892,33.3367 L186.485,38.6486 z" fill="rgb(0,255,0)" stroke-width="0.418005" stroke="rgb(0,128,0)" />
	<path d = "M186.485,38.6486 L198.938,36.6786 L199.651,39.9502 z" fill="rgb(0,255,0)" stroke-width="0.418005" stroke="rgb(0,128,0)" />
	<path d = "M199.651,39.9502 L186.485,38.6486 L200.029,43.3625 z" fill="rgb(0,255,0)" stroke-width="0.418005" stroke="rgb(0,128,0)" />
	<path d = "M200.029,43.3625 L186.485,38.6486 L189.897,45.1566 z" fill="rgb(0,255,0)" stroke-width="0.418005" stroke="rgb(0,128,0)" />
	<path d = "M189.897,45.1566 L200.029,43.3625 L200.064,46.9682 z" fill="rgb(0,255,0)" stroke-width="0.418005" stroke="rgb(0,128,0)" />
	<path d = "M200.064,46.9682 L189.897,45.1566 L199.747,50.8203 z" fill="rgb(0,255,0)" stroke-width="0.418005" stroke="rgb(0,128,0)" />
	<path d = "M199.747,50.8203 L189.897,45.1566 L191.832,52.2186 z" fill="rgb(0,255,0)" stroke-width="0.418005" stroke="rgb(0,128,0)" />
	<path d = "M191.832,52.2186 L199.747,50.8203 L199.431,54.6987 z" fill="rgb(0,255,0)" stroke-width="0.418005" stroke="rgb(0,128,0)" />
	<path d = "M199.431,54.6987 L191.832,52.2186 L199.466,58.3836 z" fill="rgb(0,255,0)" stroke-width="0.418005" stroke="rgb(0,128,0)" />
	<path d = "M199.466,58.3836 L191.832,52.2186 L192.993,59.1927 z" fill="rgb(0,255,0)" stroke-width="0.418005" stroke="rgb(0,128,0)" />
	<path d = "M192.993,59.1927 L199.466,58.3836 L200.205,61.6551 z" fill="rgb(0,255,0)" stroke-width="0.418005" stroke="rgb(0,128,0)" />
	<path d = "M200.205,61.6551 L192.993,59.1927 L201.999,64.2935 z" fill="rgb(0,255,0)" stroke-width="0.418005" stroke="rgb(0,128,0)" />
	<path d = "M201.999,64.2935 L192.993,59.1927 L194.084,65.4368 z" fill="rgb(0,255,0)" stroke-width="0.418005" stroke="rgb(0,128,0)" />
	<path d = "M194.084,65.4368 L201.999,64.2935 L204.417,66.501 z" fill="rgb(0,255,0)" stroke-width="0.418005" stroke="rgb(0,128,0)" />
	<path d = "M204.417,66.501 L194.084,65.4368 L207.029,68.4797 z" fill="rgb(0,255,0)" stroke-width="0.418005" stroke="rgb(0,128,0)" />
	<path d = "M207.029,68.4797 L194.084,65.4368 L195.807,70.309 z" fill="rgb(0,255,0)" stroke-width="0.418005" stroke="rgb(0,128,0)" />
	<path d = "M195.807,70.309 L207.029,68.4797 L209.404,70.4321 z" fill="rgb(0,255,0)" stroke-width="0.418005" stroke="rgb(0,128,0)" />
	<path d = "M209.404,70.4321 L195.807,70.309 L211.11,72.5604 z" fill="rgb(0,255,0)" stroke-width="0.418005" stroke="rgb(0,128,0)" />
	<path d = "M211.11,72.5604 L195.807,70.309 L197.865,74.2138 z" fill="rgb(0,255,0)" stroke-width="0.418005" stroke="rgb(0,128,0)" />
	<path d = "M197.865,74.2138 L211.11,72.5604 L212.227,75.0141 z" fill="rgb(0,255,0)" stroke-width="0.418005" stroke="rgb(0,128,0)" />
	<path d = "M212.227,75.0141 L197.865,74.2138 L199.958,77.5557 z" fill="rgb(0,255,0)" stroke-width="0.418005" stroke="rgb(0,128,0)" />
	<path d = "M199.958,77.5557 L212.227,75.0141 L212.834,77.9427 z" fill="rgb(0,255,0)" stroke-width="0.418005" stroke="rgb(0,128,0)" />
	<path d = "M212.834,77.9427 L199.958,77.5557 L201.788,80.7393 z" fill="rgb(0,255,0)" stroke-width="0.418005" stroke="rgb(0,128,0)" />
	<path d = "M201.788,80.7393 L212.834,77.9427 L213.009,81.4957 z" fill="rgb(0,255,0)" stroke-width="0.418005" stroke="rgb(0,128,0)" />
	<path d = "M213.009,81.4957 L201.788,80.7393 L203.054,84.1692 z" fill="rgb(0,255,0)" stroke-width="0.418005" stroke="rgb(0,128,0)" />
	<path d = "M203.054,84.1692 L213.009,81.4957 L212.834,85.8226 z" fill="rgb(0,255,0)" stroke-width="0.418005" stroke="rgb(0,128,0)" />
	<path d = "M212.834,85.8226 L203.054,84.1692 L203.687,87.6519 z" fill="rgb(0,255,0)" stroke-width="0.418005" stroke="rgb(0,128,0)" />
	<path d = "M203.687,87.6519 L212.834,85.8226 L212.112,90.5365 z" fill="rgb(0,255,0)" stroke-width="0.418005" stroke="rgb(0,128,0)" />
	<path d = "M212.112,90.5365 L203.687,87.6519 L203.617,90.9938 z" fill="rgb(0,255,0)" stroke-width="0.418005" stroke="rgb(0,128,0)" />
	<path d = "M203.617,90.9938 L212.112,90.5365 L202.773,94.0015 z" fill="rgb(0,255,0)" stroke-width="0.418005" stroke="rgb(0,128,0)" />
	<path d = "M202.773,94.0015 L212.112,90.5365 L210.653,95.2504 z" fill="rgb(0,255,0)" stroke-width="0.418005" stroke="rgb(0,128,0)" />
	<path d = "M210.653,95.2504 L202.773,94.0015 L201.084,96.4816 z" fill="rgb(0,255,0)" stroke-width="0.418005" stroke="rgb(0,128,0)" />
	<path d = "M201.084,96.4816 L210.653,95.2504 L198.806,98.3109 z" fill="rgb(0,255,0)" stroke-width="0.418005" stroke="rgb(0,128,0)" />
	<path d = "M198.806,98.3109 L210.653,95.2504 L196.194,99.3662 z" fill="rgb(0,255,0)" stroke-width="0.418005" stroke="rgb(0,128,0)" />
	<path d = "M193.503,99.5245 L196.194,99.3662 L208.26,99.5773 z" fill="rgb(0,255,0)" stroke-width="0.418005" stroke="rgb(0,128,0)" />
	<path d = "M196.194,99.3662 L210.653,95.2504 L208.26,99.5773 z" fill="rgb(0,255,0)" stroke-width="0.418005" stroke="rgb(0,128,0)" />
	<path d = "M155.502,67.2309 L171.394,66.4746 L159.187,67.2837 z" fill="rgb(0,255,0)" stroke-width="0.418005" stroke="rgb(0,128,0)" />
	<path d = "M159.187,67.2837 L171.394,66.4746 L162.335,67.442 z" fill="rgb(0,255,0)" stroke-width="0.418005" stroke="rgb(0,128,0)" />
	<path d = "M162.335,67.442 L171.394,66.4746 L164.675,67.7058 z" fill="rgb(0,255,0)" stroke-width="0.418005" stroke="rgb(0,128,0)" />
	<path d = "M164.675,67.7058 L171.394,66.4746 L166.398,68.1279 z" fill="rgb(0,255,0)" stroke-width="0.418005" stroke="rgb(0,128,0)" />
	<path d = "M166.398,68.1279 L171.394,66.4746 L167.7,68.7612 z" fill="rgb(0,255,0)" stroke-width="0.418005" stroke="rgb(0,128,0)" />
	<path d = "M167.7,68.7612 L171.394,66.4746 L168.773,69.6582 z" fill="rgb(0,255,0)" stroke-width="0.418005" stroke="rgb(0,128,0)" />
	<path d = "M168.773,69.6582 L171.394,66.4746 L175.193,70.2035 z" fill="rgb(0,255,0)" stroke-width="0.418005" stroke="rgb(0,128,0)" />
	<path d = "M175.193,70.2035 L168.773,69.6582 L169.811,70.8718 z" fill="rgb(0,255,0)" stroke-width="0.418005" stroke="rgb(0,128,0)" />
	<path d = "M169.811,70.8718 L175.193,70.2035 L170.769,72.3581 z" fill="rgb(0,255,0)" stroke-width="0.418005" stroke="rgb(0,128,0)" />
	<path d = "M170.769,72.3581 L175.193,70.2035 L171.605,74.0731 z" fill="rgb(0,255,0)" stroke-width="0.418005" stroke="rgb(0,128,0)" />
	<path d = "M171.605,74.0731 L175.193,70.2035 L178.148,74.9173 z" fill="rgb(0,255,0)" stroke-width="0.418005" stroke="rgb(0,128,0)" />
	<path d = "M178.148,74.9173 L171.605,74.0731 L172.273,75.9727 z" fill="rgb(0,255,0)" stroke-width="0.418005" stroke="rgb(0,128,0)" />
	<path d = "M172.273,75.9727 L178.148,74.9173 L172.73,78.013 z" fill="rgb(0,255,0)" stroke-width="0.418005" stroke="rgb(0,128,0)" />
	<path d = "M172.73,78.013 L178.148,74.9173 L180.505,80.1325 z" fill="rgb(0,255,0)" stroke-width="0.418005" stroke="rgb(0,128,0)" />
	<path d = "M180.505,80.1325 L172.73,78.013 L173.012,80.1413 z" fill="rgb(0,255,0)" stroke-width="0.418005" stroke="rgb(0,128,0)" />
	<path d = "M173.012,80.1413 L180.505,80.1325 L173.153,82.3048 z" fill="rgb(0,255,0)" stroke-width="0.418005" stroke="rgb(0,128,0)" />
	<path d = "M173.153,82.3048 L180.505,80.1325 L173.188,84.4506 z" fill="rgb(0,255,0)" stroke-width="0.418005" stroke="rgb(0,128,0)" />
	<path d = "M173.188,84.4506 L180.505,80.1325 L182.51,85.3653 z" fill="rgb(0,255,0)" stroke-width="0.418005" stroke="rgb(0,128,0)" />
	<path d = "M182.51,85.3653 L173.188,84.4506 L173.153,86.5262 z" fill="rgb(0,255,0)" stroke-width="0.418005" stroke="rgb(0,128,0)" />
	<path d = "M173.153,86.5262 L182.51,85.3653 L173.1,88.5665 z" fill="rgb(0,255,0)" stroke-width="0.418005" stroke="rgb(0,128,0)" />
	<path d = "M173.1,88.5665 L182.51,85.3653 L184.41,90.1319 z" fill="rgb(0,255,0)" stroke-width="0.418005" stroke="rgb(0,128,0)" />
	<path d = "M184.41,90.1319 L173.1,88.5665 L173.082,90.6068 z" fill="rgb(0,255,0)" stroke-width="0.418005" stroke="rgb(0,128,0)" />
	<path d = "M173.082,90.6068 L184.41,90.1319 L173.153,92.6824 z" fill="rgb(0,255,0)" stroke-width="0.418005" stroke="rgb(0,128,0)" />
	<path d = "M173.153,92.6824 L184.41,90.1319 L186.45,93.9488 z" fill="rgb(0,255,0)" stroke-width="0.418005" stroke="rgb(0,128,0)" />
	<path d = "M186.45,93.9488 L173.153,92.6824 L173.364,94.8282 z" fill="rgb(0,255,0)" stroke-width="0.418005" stroke="rgb(0,128,0)" />
	<path d = "M173.364,94.8282 L186.45,93.9488 L188.64,96.7982 z" fill="rgb(0,255,0)" stroke-width="0.418005" stroke="rgb(0,128,0)" />
	<path d = "M188.64,96.7982 L173.364,94.8282 L173.9,97.0357 z" fill="rgb(0,255,0)" stroke-width="0.418005" stroke="rgb(0,128,0)" />
	<path d = "M173.9,97.0357 L188.64,96.7982 L190.988,98.6627 z" fill="rgb(0,255,0)" stroke-width="0.418005" stroke="rgb(0,128,0)" />
	<path d = "M190.988,98.6627 L173.9,97.0357 L174.947,99.2959 z" fill="rgb(0,255,0)" stroke-width="0.418005" stroke="rgb(0,128,0)" />
	<path d = "M174.947,99.2959 L190.988,98.6627 L193.503,99.5245 z" fill="rgb(0,255,0)" stroke-width="0.418005" stroke="rgb(0,128,0)" />
	<path d = "M208.26,99.5773 L193.503,99.5245 L176.688,101.6 z" fill="rgb(0,255,0)" stroke-width="0.418005" stroke="rgb(0,128,0)" />
	<path d = "M193.503,99.5245 L174.947,99.2959 L176.688,101.6 z" fill="rgb(0,255,0)" stroke-width="0.418005" stroke="rgb(0,128,0)" />
	<path d = "M176.688,101.6 L208.26,99.5773 L204.743,103.13 z" fill="rgb(0,255,0)" stroke-width="0.418005" stroke="rgb(0,128,0)" />
	<path d = "M204.743,103.13 L176.688,101.6 L179.309,103.939 z" fill="rgb(0,255,0)" stroke-width="0.418005" stroke="rgb(0,128,0)" />
	<path d = "M179.309,103.939 L204.743,103.13 L200.46,105.804 z" fill="rgb(0,255,0)" stroke-width="0.418005" stroke="rgb(0,128,0)" />
	<path d = "M200.46,105.804 L179.309,103.939 L182.668,106.006 z" fill="rgb(0,255,0)" stroke-width="0.418005" stroke="rgb(0,128,0)" />
	<path d = "M182.668,106.006 L200.46,105.804 L186.626,107.492 z" fill="rgb(0,255,0)" stroke-width="0.418005" stroke="rgb(0,128,0)" />
	<path d = "M186.626,107.492 L200.46,105.804 L195.772,107.492 z" fill="rgb(0,255,0)" stroke-width="0.418005" stroke="rgb(0,128,0)" />
	<path d = "M195.772,107.492 L186.626,107.492 L191.041,108.09 z" fill="rgb(0,255,0)" stroke-width="0.418005" stroke="rgb(0,128,0)" />
	<path d = "M160.911,74.5304 L158.246,74.4248 L155.176,74.7415 z" fill="rgb(0,255,0)" stroke-width="0.418005" stroke="rgb(0,128,0)" />
	<path d = "M155.176,74.7415 L160.911,74.5304 L163.127,75.2164 z" fill="rgb(0,255,0)" stroke-width="0.418005" stroke="rgb(0,128,0)" />
	<path d = "M163.127,75.2164 L155.176,74.7415 L151.747,75.3219 z" fill="rgb(0,255,0)" stroke-width="0.418005" stroke="rgb(0,128,0)" />
	<path d = "M151.747,75.3219 L163.127,75.2164 L148,76.0079 z" fill="rgb(0,255,0)" stroke-width="0.418005" stroke="rgb(0,128,0)" />
	<path d = "M148,76.0079 L163.127,75.2164 L164.85,76.6411 z" fill="rgb(0,255,0)" stroke-width="0.418005" stroke="rgb(0,128,0)" />
	<path d = "M164.85,76.6411 L148,76.0079 L144.148,76.7818 z" fill="rgb(0,255,0)" stroke-width="0.418005" stroke="rgb(0,128,0)" />
	<path d = "M144.148,76.7818 L164.85,76.6411 L140.402,77.6261 z" fill="rgb(0,255,0)" stroke-width="0.418005" stroke="rgb(0,128,0)" />
	<path d = "M140.402,77.6261 L164.85,76.6411 L136.972,78.5231 z" fill="rgb(0,255,0)" stroke-width="0.418005" stroke="rgb(0,128,0)" />
	<path d = "M136.972,78.5231 L164.85,76.6411 L166.055,78.6199 z" fill="rgb(0,255,0)" stroke-width="0.418005" stroke="rgb(0,128,0)" />
	<path d = "M166.055,78.6199 L136.972,78.5231 L134.07,79.4553 z" fill="rgb(0,255,0)" stroke-width="0.418005" stroke="rgb(0,128,0)" />
	<path d = "M134.07,79.4553 L166.055,78.6199 L131.66,80.282 z" fill="rgb(0,255,0)" stroke-width="0.418005" stroke="rgb(0,128,0)" />
	<path d = "M131.66,80.282 L166.055,78.6199 L129.707,80.8625 z" fill="rgb(0,255,0)" stroke-width="0.418005" stroke="rgb(0,128,0)" />
	<path d = "M129.707,80.8625 L166.055,78.6199 L166.715,80.968 z" fill="rgb(0,255,0)" stroke-width="0.418005" stroke="rgb(0,128,0)" />
	<path d = "M166.715,80.968 L129.707,80.8625 L128.177,81.0559 z" fill="rgb(0,255,0)" stroke-width="0.418005" stroke="rgb(0,128,0)" />
	<path d = "M128.177,81.0559 L166.715,80.968 L101.266,82.9907 z" fill="rgb(0,255,0)" stroke-width="0.418005" stroke="rgb(0,128,0)" />
	<path d = "M101.266,82.9907 L166.715,80.968 L166.803,83.5008 z" fill="rgb(0,255,0)" stroke-width="0.418005" stroke="rgb(0,128,0)" />
	<path d = "M166.803,83.5008 L101.266,82.9907 L166.293,86.0337 z" fill="rgb(0,255,0)" stroke-width="0.418005" stroke="rgb(0,128,0)" />
	<path d = "M166.293,86.0337 L101.266,82.9907 L98.8209,87.9685 z" fill="rgb(0,255,0)" stroke-width="0.418005" stroke="rgb(0,128,0)" />
	<path d = "M98.8209,87.9685 L166.293,86.0337 L164.974,88.8567 z" fill="rgb(0,255,0)" stroke-width="0.418005" stroke="rgb(0,128,0)" />
	<path d = "M164.974,88.8567 L98.8209,87.9685 L162.634,92.2602 z" fill="rgb(0,255,0)" stroke-width="0.418005" stroke="rgb(0,128,0)" />
	<path d = "M162.634,92.2602 L98.8209,87.9685 L96.2177,92.8407 z" fill="rgb(0,255,0)" stroke-width="0.418005" stroke="rgb(0,128,0)" />
	<path d = "M96.2177,92.8407 L162.634,92.2602 L159.064,96.5344 z" fill="rgb(0,255,0)" stroke-width="0.418005" stroke="rgb(0,128,0)" />
	<path d = "M159.064,96.5344 L96.2177,92.8407 L93.5442,97.2555 z" fill="rgb(0,255,0)" stroke-width="0.418005" stroke="rgb(0,128,0)" />
	<path d = "M93.5442,97.2555 L159.064,96.5344 L90.8882,100.861 z" fill="rgb(0,255,0)" stroke-width="0.418005" stroke="rgb(0,128,0)" />
	<path d = "M90.8882,100.861 L159.064,96.5344 L154.051,101.969 z" fill="rgb(0,255,0)" stroke-width="0.418005" stroke="rgb(0,128,0)" />
	<path d = "M154.051,101.969 L90.8882,100.861 L88.3378,103.306 z" fill="rgb(0,255,0)" stroke-width="0.418005" stroke="rgb(0,128,0)" />
	<path d = "M88.3378,103.306 L154.051,101.969 L85.8314,104.546 z" fill="rgb(0,255,0)" stroke-width="0.418005" stroke="rgb(0,128,0)" />
	<path d = "M85.8314,104.546 L154.051,101.969 L36.3796,107.105 z" fill="rgb(0,255,0)" stroke-width="0.418005" stroke="rgb(0,128,0)" />
	<path d = "M36.3796,107.105 L154.051,101.969 L148.202,107.959 z" fill="rgb(0,255,0)" stroke-width="0.418005" stroke="rgb(0,128,0)" />
	<path d = "M148.202,107.959 L36.3796,107.105 L142.125,113.895 z" fill="rgb(0,255,0)" stroke-width="0.418005" stroke="rgb(0,128,0)" />
	<path d = "M142.125,113.895 L36.3796,107.105 L39.8094,115.654 z" fill="rgb(0,255,0)" stroke-width="0.418005" stroke="rgb(0,128,0)" />
	<path d = "M39.8094,115.654 L142.125,113.895 L136.426,119.172 z" fill="rgb(0,255,0)" stroke-width="0.418005" stroke="rgb(0,128,0)" />
	<path d = "M136.426,119.172 L39.8094,115.654 L131.713,123.182 z" fill="rgb(0,255,0)" stroke-width="0.418005" stroke="rgb(0,128,0)" />
	<path d = "M131.713,123.182 L39.8094,115.654 L44.0484,123.217 z" fill="rgb(0,255,0)" stroke-width="0.418005" stroke="rgb(0,128,0)" />
	<path d = "M44.0484,123.217 L131.713,123.182 L127.535,126.278 z" fill="rgb(0,255,0)" stroke-width="0.418005" stroke="rgb(0,128,0)" />
	<path d = "M127.535,126.278 L44.0484,123.217 L123.446,128.81 z" fill="rgb(0,255,0)" stroke-width="0.418005" stroke="rgb(0,128,0)" />
	<path d = "M123.446,128.81 L44.0484,123.217 L49.0437,129.461 z" fill="rgb(0,255,0)" stroke-width="0.418005" stroke="rgb(0,128,0)" />
	<path d = "M49.0437,129.461 L123.446,128.81 L118.996,131.132 z" fill="rgb(0,255,0)" stroke-width="0.418005" stroke="rgb(0,128,0)" />
	<path d = "M118.996,131.132 L49.0437,129.461 L113.737,133.595 z" fill="rgb(0,255,0)" stroke-width="0.418005" stroke="rgb(0,128,0)" />
	<path d = "M113.737,133.595 L49.0437,129.461 L54.7426,134.052 z" fill="rgb(0,255,0)" stroke-width="0.418005" stroke="rgb(0,128,0)" />
	<path d = "M54.7426,134.052 L113.737,133.595 L107.95,136.004 z" fill="rgb(0,255,0)" stroke-width="0.418005" stroke="rgb(0,128,0)" />
	<path d = "M107.95,136.004 L54.7426,134.052 L60.8724,137.262 z" fill="rgb(0,255,0)" stroke-width="0.418005" stroke="rgb(0,128,0)" />
	<path d = "M60.8724,137.262 L107.95,136.004 L101.917,138.168 z" fill="rgb(0,255,0)" stroke-width="0.418005" stroke="rgb(0,128,0)" />
	<path d = "M101.917,138.168 L60.8724,137.262 L67.1605,139.364 z" fill="rgb(0,255,0)" stroke-width="0.418005" stroke="rgb(0,128,0)" />
	<path d = "M67.1605,139.364 L101.917,138.168 L95.9187,139.892 z" fill="rgb(0,255,0)" stroke-width="0.418005" stroke="rgb(0,128,0)" />
	<path d = "M95.9187,139.892 L67.1605,139.364 L73.3343,140.63 z" fill="rgb(0,255,0)" stroke-width="0.418005" stroke="rgb(0,128,0)" />
	<path d = "M73.3343,140.63 L95.9187,139.892 L90.2374,140.982 z" fill="rgb(0,255,0)" stroke-width="0.418005" stroke="rgb(0,128,0)" />
	<path d = "M90.2374,140.982 L73.3343,140.63 L79.1211,141.334 z" fill="rgb(0,255,0)" stroke-width="0.418005" stroke="rgb(0,128,0)" />
	<path d = "M79.1211,141.334 L90.2374,140.982 L84.6969,141.457 z" fill="rgb(0,255,0)" stroke-width="0.418005" stroke="rgb(0,128,0)" />
	<path d = "M104.168,19.0543 L99.4014,18.7993 L93.6146,19.1598 z" fill="rgb(0,255,0)" stroke-width="0.418005" stroke="rgb(0,128,0)" />
	<path d = "M93.6146,19.1598 L104.168,19.0543 L107.95,19.8282 z" fill="rgb(0,255,0)" stroke-width="0.418005" stroke="rgb(0,128,0)" />
	<path d = "M107.95,19.8282 L93.6146,19.1598 L86.7724,20.2328 z" fill="rgb(0,255,0)" stroke-width="0.418005" stroke="rgb(0,128,0)" />
	<path d = "M86.7724,20.2328 L107.95,19.8282 L110.782,21.0243 z" fill="rgb(0,255,0)" stroke-width="0.418005" stroke="rgb(0,128,0)" />
	<path d = "M110.782,21.0243 L86.7724,20.2328 L78.8397,22.1148 z" fill="rgb(0,255,0)" stroke-width="0.418005" stroke="rgb(0,128,0)" />
	<path d = "M78.8397,22.1148 L110.782,21.0243 L112.954,22.5194 z" fill="rgb(0,255,0)" stroke-width="0.418005" stroke="rgb(0,128,0)" />
	<path d = "M112.954,22.5194 L78.8397,22.1148 L114.757,24.1903 z" fill="rgb(0,255,0)" stroke-width="0.418005" stroke="rgb(0,128,0)" />
	<path d = "M114.757,24.1903 L78.8397,22.1148 L70.3617,24.8499 z" fill="rgb(0,255,0)" stroke-width="0.418005" stroke="rgb(0,128,0)" />
	<path d = "M70.3617,24.8499 L114.757,24.1903 L116.48,25.9141 z" fill="rgb(0,255,0)" stroke-width="0.418005" stroke="rgb(0,128,0)" />
	<path d = "M116.48,25.9141 L70.3617,24.8499 L118.415,27.5674 z" fill="rgb(0,255,0)" stroke-width="0.418005" stroke="rgb(0,128,0)" />
	<path d = "M118.415,27.5674 L70.3617,24.8499 L61.8838,28.4821 z" fill="rgb(0,255,0)" stroke-width="0.418005" stroke="rgb(0,128,0)" />
	<path d = "M61.8838,28.4821 L118.415,27.5674 L120.605,29.1592 z" fill="rgb(0,255,0)" stroke-width="0.418005" stroke="rgb(0,128,0)" />
	<path d = "M120.605,29.1592 L61.8838,28.4821 L123.094,30.6983 z" fill="rgb(0,255,0)" stroke-width="0.418005" stroke="rgb(0,128,0)" />
	<path d = "M123.094,30.6983 L61.8838,28.4821 L125.926,32.1934 z" fill="rgb(0,255,0)" stroke-width="0.418005" stroke="rgb(0,128,0)" />
	<path d = "M125.926,32.1934 L61.8838,28.4821 L53.9511,33.0552 z" fill="rgb(0,255,0)" stroke-width="0.418005" stroke="rgb(0,128,0)" />
	<path d = "M53.9511,33.0552 L125.926,32.1934 L129.145,33.6533 z" fill="rgb(0,255,0)" stroke-width="0.418005" stroke="rgb(0,128,0)" />
	<path d = "M129.145,33.6533 L53.9511,33.0552 L132.654,34.9373 z" fill="rgb(0,255,0)" stroke-width="0.418005" stroke="rgb(0,128,0)" />
	<path d = "M132.654,34.9373 L53.9511,33.0552 L136.356,35.9047 z" fill="rgb(0,255,0)" stroke-width="0.418005" stroke="rgb(0,128,0)" />
	<path d = "M136.356,35.9047 L53.9511,33.0552 L140.155,36.4148 z" fill="rgb(0,255,0)" stroke-width="0.418005" stroke="rgb(0,128,0)" />
	<path d = "M180.566,36.661 L140.155,36.4148 L183.143,38.2968 z" fill="rgb(0,255,0)" stroke-width="0.418005" stroke="rgb(0,128,0)" />
	<path d = "M140.155,36.4148 L53.9511,33.0552 L183.143,38.2968 z" fill="rgb(0,255,0)" stroke-width="0.418005" stroke="rgb(0,128,0)" />
	<path d = "M183.143,38.2968 L53.9511,33.0552 L47.1089,38.6134 z" fill="rgb(0,255,0)" stroke-width="0.418005" stroke="rgb(0,128,0)" />
	<path d = "M47.1089,38.6134 L183.143,38.2968 L185.289,40.214 z" fill="rgb(0,255,0)" stroke-width="0.418005" stroke="rgb(0,128,0)" />
	<path d = "M185.289,40.214 L47.1089,38.6134 L186.802,42.3775 z" fill="rgb(0,255,0)" stroke-width="0.418005" stroke="rgb(0,128,0)" />
	<path d = "M186.802,42.3775 L47.1089,38.6134 L187.725,44.8048 z" fill="rgb(0,255,0)" stroke-width="0.418005" stroke="rgb(0,128,0)" />
	<path d = "M187.725,44.8048 L47.1089,38.6134 L41.4276,45.095 z" fill="rgb(0,255,0)" stroke-width="0.418005" stroke="rgb(0,128,0)" />
	<path d = "M41.4276,45.095 L187.725,44.8048 L188.103,47.5135 z" fill="rgb(0,255,0)" stroke-width="0.418005" stroke="rgb(0,128,0)" />
	<path d = "M188.103,47.5135 L41.4276,45.095 L187.98,50.5212 z" fill="rgb(0,255,0)" stroke-width="0.418005" stroke="rgb(0,128,0)" />
	<path d = "M187.98,50.5212 L41.4276,45.095 L135.811,52.2186 z" fill="rgb(0,255,0)" stroke-width="0.418005" stroke="rgb(0,128,0)" />
	<path d = "M135.811,52.2186 L41.4276,45.095 L36.9776,52.4385 z" fill="rgb(0,255,0)" stroke-width="0.418005" stroke="rgb(0,128,0)" />
	<path d = "M36.9776,52.4385 L135.811,52.2186 L126.752,52.4736 z" fill="rgb(0,255,0)" stroke-width="0.418005" stroke="rgb(0,128,0)" />
	<path d = "M126.752,52.4736 L36.9776,52.4385 L118.609,52.9309 z" fill="rgb(0,255,0)" stroke-width="0.418005" stroke="rgb(0,128,0)" />
	<path d = "M118.609,52.9309 L36.9776,52.4385 L111.978,53.3179 z" fill="rgb(0,255,0)" stroke-width="0.418005" stroke="rgb(0,128,0)" />
	<path d = "M111.978,53.3179 L36.9776,52.4385 L106.534,53.7225 z" fill="rgb(0,255,0)" stroke-width="0.418005" stroke="rgb(0,128,0)" />
	<path d = "M106.534,53.7225 L36.9776,52.4385 L101.952,54.2325 z" fill="rgb(0,255,0)" stroke-width="0.418005" stroke="rgb(0,128,0)" />
	<path d = "M101.952,54.2325 L36.9776,52.4385 L97.9063,54.9361 z" fill="rgb(0,255,0)" stroke-width="0.418005" stroke="rgb(0,128,0)" />
	<path d = "M97.9063,54.9361 L36.9776,52.4385 L94.0719,55.9211 z" fill="rgb(0,255,0)" stroke-width="0.418005" stroke="rgb(0,128,0)" />
	<path d = "M94.0719,55.9211 L36.9776,52.4385 L90.4221,57.2139 z" fill="rgb(0,255,0)" stroke-width="0.418005" stroke="rgb(0,128,0)" />
	<path d = "M90.4221,57.2139 L36.9776,52.4385 L86.9307,58.8409 z" fill="rgb(0,255,0)" stroke-width="0.418005" stroke="rgb(0,128,0)" />
	<path d = "M86.9307,58.8409 L36.9776,52.4385 L33.8291,60.5822 z" fill="rgb(0,255,0)" stroke-width="0.418005" stroke="rgb(0,128,0)" />
	<path d = "M33.8291,60.5822 L86.9307,58.8409 L83.5712,60.8285 z" fill="rgb(0,255,0)" stroke-width="0.418005" stroke="rgb(0,128,0)" />
	<path d = "M83.5712,60.8285 L33.8291,60.5822 L80.3172,63.203 z" fill="rgb(0,255,0)" stroke-width="0.418005" stroke="rgb(0,128,0)" />
	<path d = "M80.3172,63.203 L33.8291,60.5822 L77.3094,65.9381 z" fill="rgb(0,255,0)" stroke-width="0.418005" stroke="rgb(0,128,0)" />
	<path d = "M77.3094,65.9381 L33.8291,60.5822 L74.6887,69.0074 z" fill="rgb(0,255,0)" stroke-width="0.418005" stroke="rgb(0,128,0)" />
	<path d = "M74.6887,69.0074 L33.8291,60.5822 L32.0526,69.4647 z" fill="rgb(0,255,0)" stroke-width="0.418005" stroke="rgb(0,128,0)" />
	<path d = "M32.0526,69.4647 L74.6887,69.0074 L72.5956,72.3845 z" fill="rgb(0,255,0)" stroke-width="0.418005" stroke="rgb(0,128,0)" />
	<path d = "M72.5956,72.3845 L32.0526,69.4647 L71.1708,76.043 z" fill="rgb(0,255,0)" stroke-width="0.418005" stroke="rgb(0,128,0)" />
	<path d = "M71.1708,76.043 L32.0526,69.4647 L31.5338,78.8221 z" fill="rgb(0,255,0)" stroke-width="0.418005" stroke="rgb(0,128,0)" />
	<path d = "M31.5338,78.8221 L71.1708,76.043 L70.4585,79.9478 z" fill="rgb(0,255,0)" stroke-width="0.418005" stroke="rgb(0,128,0)" />
	<path d = "M70.4585,79.9478 L31.5338,78.8221 L70.5024,84.0637 z" fill="rgb(0,255,0)" stroke-width="0.418005" stroke="rgb(0,128,0)" />
	<path d = "M70.5024,84.0637 L31.5338,78.8221 L71.3467,88.3554 z" fill="rgb(0,255,0)" stroke-width="0.418005" stroke="rgb(0,128,0)" />
	<path d = "M71.3467,88.3554 L31.5338,78.8221 L32.1582,88.3906 z" fill="rgb(0,255,0)" stroke-width="0.418005" stroke="rgb(0,128,0)" />
	<path d = "M32.1582,88.3906 L71.3467,88.3554 L73.0353,92.7879 z" fill="rgb(0,255,0)" stroke-width="0.418005" stroke="rgb(0,128,0)" />
	<path d = "M73.0353,92.7879 L32.1582,88.3906 L75.3219,96.9917 z" fill="rgb(0,255,0)" stroke-width="0.418005" stroke="rgb(0,128,0)" />
	<path d = "M75.3219,96.9917 L32.1582,88.3906 L33.8115,97.9063 z" fill="rgb(0,255,0)" stroke-width="0.418005" stroke="rgb(0,128,0)" />
	<path d = "M33.8115,97.9063 L75.3219,96.9917 L77.9602,100.597 z" fill="rgb(0,255,0)" stroke-width="0.418005" stroke="rgb(0,128,0)" />
	<path d = "M77.9602,100.597 L33.8115,97.9063 L80.7041,103.236 z" fill="rgb(0,255,0)" stroke-width="0.418005" stroke="rgb(0,128,0)" />
	<path d = "M80.7041,103.236 L33.8115,97.9063 L83.3073,104.537 z" fill="rgb(0,255,0)" stroke-width="0.418005" stroke="rgb(0,128,0)" />
	<path d = "M85.8314,104.546 L83.3073,104.537 L36.3796,107.105 z" fill="rgb(0,255,0)" stroke-width="0.418005" stroke="rgb(0,128,0)" />
	<path d = "M83.3073,104.537 L33.8115,97.9063 L36.3796,107.105 z" fill="rgb(0,255,0)" stroke-width="0.418005" stroke="rgb(0,128,0)" />
	<path d = "M184.04,130.798 L179.661,130.534 L175.052,131.466 z" fill="rgb(0,255,0)" stroke-width="0.418005" stroke="rgb(0,128,0)" />
	<path d = "M175.052,131.466 L184.04,130.798 L187.963,132.645 z" fill="rgb(0,255,0)" stroke-width="0.418005" stroke="rgb(0,128,0)" />
	<path d = "M187.963,132.645 L175.052,131.466 L170.444,133.208 z" fill="rgb(0,255,0)" stroke-width="0.418005" stroke="rgb(0,128,0)" />
	<path d = "M170.444,133.208 L187.963,132.645 L166.064,135.371 z" fill="rgb(0,255,0)" stroke-width="0.418005" stroke="rgb(0,128,0)" />
	<path d = "M166.064,135.371 L187.963,132.645 L191.093,135.811 z" fill="rgb(0,255,0)" stroke-width="0.418005" stroke="rgb(0,128,0)" />
	<path d = "M191.093,135.811 L166.064,135.371 L162.142,137.57 z" fill="rgb(0,255,0)" stroke-width="0.418005" stroke="rgb(0,128,0)" />
	<path d = "M162.142,137.57 L191.093,135.811 L158.211,139.821 z" fill="rgb(0,255,0)" stroke-width="0.418005" stroke="rgb(0,128,0)" />
	<path d = "M158.211,139.821 L191.093,135.811 L193.099,140.032 z" fill="rgb(0,255,0)" stroke-width="0.418005" stroke="rgb(0,128,0)" />
	<path d = "M193.099,140.032 L158.211,139.821 L153.805,142.143 z" fill="rgb(0,255,0)" stroke-width="0.418005" stroke="rgb(0,128,0)" />
	<path d = "M153.805,142.143 L193.099,140.032 L148.457,144.553 z" fill="rgb(0,255,0)" stroke-width="0.418005" stroke="rgb(0,128,0)" />
	<path d = "M148.457,144.553 L193.099,140.032 L193.644,145.045 z" fill="rgb(0,255,0)" stroke-width="0.418005" stroke="rgb(0,128,0)" />
	<path d = "M193.644,145.045 L148.457,144.553 L141.703,147.068 z" fill="rgb(0,255,0)" stroke-width="0.418005" stroke="rgb(0,128,0)" />
	<path d = "M141.703,147.068 L193.644,145.045 L133.955,149.548 z" fill="rgb(0,255,0)" stroke-width="0.418005" stroke="rgb(0,128,0)" />
	<path d = "M133.955,149.548 L193.644,145.045 L192.395,150.586 z" fill="rgb(0,255,0)" stroke-width="0.418005" stroke="rgb(0,128,0)" />
	<path d = "M192.395,150.586 L133.955,149.548 L125.627,151.852 z" fill="rgb(0,255,0)" stroke-width="0.418005" stroke="rgb(0,128,0)" />
	<path d = "M125.627,151.852 L192.395,150.586 L117.131,153.84 z" fill="rgb(0,255,0)" stroke-width="0.418005" stroke="rgb(0,128,0)" />
	<path d = "M117.131,153.84 L192.395,150.586 L108.882,155.37 z" fill="rgb(0,255,0)" stroke-width="0.418005" stroke="rgb(0,128,0)" />
	<path d = "M108.882,155.37 L192.395,150.586 L189.44,156.241 z" fill="rgb(0,255,0)" stroke-width="0.418005" stroke="rgb(0,128,0)" />
	<path d = "M189.44,156.241 L108.882,155.37 L100.923,156.487 z" fill="rgb(0,255,0)" stroke-width="0.418005" stroke="rgb(0,128,0)" />
	<path d = "M100.923,156.487 L189.44,156.241 L93.2979,157.234 z" fill="rgb(0,255,0)" stroke-width="0.418005" stroke="rgb(0,128,0)" />
	<path d = "M93.2979,157.234 L189.44,156.241 L86.0512,157.657 z" fill="rgb(0,255,0)" stroke-width="0.418005" stroke="rgb(0,128,0)" />
	<path d = "M86.0512,157.657 L189.44,156.241 L79.2267,157.797 z" fill="rgb(0,255,0)" stroke-width="0.418005" stroke="rgb(0,128,0)" />
	<path d = "M79.2267,157.797 L189.44,156.241 L35.5353,158.606 z" fill="rgb(0,255,0)" stroke-width="0.418005" stroke="rgb(0,128,0)" />
	<path d = "M35.5353,158.606 L189.44,156.241 L184.867,161.597 z" fill="rgb(0,255,0)" stroke-width="0.418005" stroke="rgb(0,128,0)" />
	<path d = "M184.867,161.597 L35.5353,158.606 L47.9884,164.059 z" fill="rgb(0,255,0)" stroke-width="0.418005" stroke="rgb(0,128,0)" />
	<path d = "M47.9884,164.059 L184.867,161.597 L178.763,166.24 z" fill="rgb(0,255,0)" stroke-width="0.418005" stroke="rgb(0,128,0)" />
	<path d = "M178.763,166.24 L47.9884,164.059 L62.3499,168.219 z" fill="rgb(0,255,0)" stroke-width="0.418005" stroke="rgb(0,128,0)" />
	<path d = "M62.3499,168.219 L178.763,166.24 L171.218,169.758 z" fill="rgb(0,255,0)" stroke-width="0.418005" stroke="rgb(0,128,0)" />
	<path d = "M171.218,169.758 L62.3499,168.219 L77.5733,171.271 z" fill="rgb(0,255,0)" stroke-width="0.418005" stroke="rgb(0,128,0)" />
	<path d = "M77.5733,171.271 L171.218,169.758 L162.45,172.3 z" fill="rgb(0,255,0)" stroke-width="0.418005" stroke="rgb(0,128,0)" />
	<path d = "M162.45,172.3 L77.5733,171.271 L92.612,173.399 z" fill="rgb(0,255,0)" stroke-width="0.418005" stroke="rgb(0,128,0)" />
	<path d = "M92.612,173.399 L162.45,172.3 L152.679,174.014 z" fill="rgb(0,255,0)" stroke-width="0.418005" stroke="rgb(0,128,0)" />
	<path d = "M152.679,174.014 L92.612,173.399 L106.419,174.788 z" fill="rgb(0,255,0)" stroke-width="0.418005" stroke="rgb(0,128,0)" />
	<path d = "M106.419,174.788 L152.679,174.014 L142.125,175.052 z" fill="rgb(0,255,0)" stroke-width="0.418005" stroke="rgb(0,128,0)" />
	<path d = "M142.125,175.052 L106.419,174.788 L119.163,175.492 z" fill="rgb(0,255,0)" stroke-width="0.418005" stroke="rgb(0,128,0)" />
	<path d = "M119.163,175.492 L142.125,175.052 L131.009,175.562 z" fill="rgb(0,255,0)" stroke-width="0.418005" stroke="rgb(0,128,0)" />
	<path d = "M102.145,15.6596 L52.5791,15.1847 L88.76,16.4863 z" fill="rgb(0,255,0)" stroke-width="0.418005" stroke="rgb(0,128,0)" />
	<path d = "M88.76,16.4863 L52.5791,15.1847 L75.8759,18.509 z" fill="rgb(0,255,0)" stroke-width="0.418005" stroke="rgb(0,128,0)" />
	<path d = "M75.8759,18.509 L52.5791,15.1847 L42.6765,19.6172 z" fill="rgb(0,255,0)" stroke-width="0.418005" stroke="rgb(0,128,0)" />
	<path d = "M42.6765,19.6172 L75.8759,18.509 L63.8889,21.6927 z" fill="rgb(0,255,0)" stroke-width="0.418005" stroke="rgb(0,128,0)" />
	<path d = "M63.8889,21.6927 L42.6765,19.6172 L34.1809,25.36 z" fill="rgb(0,255,0)" stroke-width="0.418005" stroke="rgb(0,128,0)" />
	<path d = "M34.1809,25.36 L63.8889,21.6927 L53.1948,26.002 z" fill="rgb(0,255,0)" stroke-width="0.418005" stroke="rgb(0,128,0)" />
	<path d = "M53.1948,26.002 L34.1809,25.36 L44.1891,31.4019 z" fill="rgb(0,255,0)" stroke-width="0.418005" stroke="rgb(0,128,0)" />
	<path d = "M44.1891,31.4019 L34.1809,25.36 L27.0573,32.4572 z" fill="rgb(0,255,0)" stroke-width="0.418005" stroke="rgb(0,128,0)" />
	<path d = "M27.0573,32.4572 L44.1891,31.4019 L36.8281,37.7955 z" fill="rgb(0,255,0)" stroke-width="0.418005" stroke="rgb(0,128,0)" />
	<path d = "M36.8281,37.7955 L27.0573,32.4572 L21.2705,40.9528 z" fill="rgb(0,255,0)" stroke-width="0.418005" stroke="rgb(0,128,0)" />
	<path d = "M21.2705,40.9528 L36.8281,37.7955 L31.0676,45.0862 z" fill="rgb(0,255,0)" stroke-width="0.418005" stroke="rgb(0,128,0)" />
	<path d = "M31.0676,45.0862 L21.2705,40.9528 L16.7853,50.8906 z" fill="rgb(0,255,0)" stroke-width="0.418005" stroke="rgb(0,128,0)" />
	<path d = "M16.7853,50.8906 L31.0676,45.0862 L26.8639,53.1772 z" fill="rgb(0,255,0)" stroke-width="0.418005" stroke="rgb(0,128,0)" />
	<path d = "M26.8639,53.1772 L16.7853,50.8906 L13.4346,61.7783 z" fill="rgb(0,255,0)" stroke-width="0.418005" stroke="rgb(0,128,0)" />
	<path d = "M13.4346,61.7783 L26.8639,53.1772 L24.1727,61.9718 z" fill="rgb(0,255,0)" stroke-width="0.418005" stroke="rgb(0,128,0)" />
	<path d = "M24.1727,61.9718 L13.4346,61.7783 L22.8711,71.5226 z" fill="rgb(0,255,0)" stroke-width="0.418005" stroke="rgb(0,128,0)" />
	<path d = "M22.8711,71.5226 L13.4346,61.7783 L11.0512,73.1233 z" fill="rgb(0,255,0)" stroke-width="0.418005" stroke="rgb(0,128,0)" />
	<path d = "M11.0512,73.1233 L22.8711,71.5226 L22.8359,81.8826 z" fill="rgb(0,255,0)" stroke-width="0.418005" stroke="rgb(0,128,0)" />
	<path d = "M22.8359,81.8826 L11.0512,73.1233 L9.46822,84.4331 z" fill="rgb(0,255,0)" stroke-width="0.418005" stroke="rgb(0,128,0)" />
	<path d = "M9.46822,84.4331 L22.8359,81.8826 L23.9441,93.1045 z" fill="rgb(0,255,0)" stroke-width="0.418005" stroke="rgb(0,128,0)" />
	<path d = "M23.9441,93.1045 L9.46822,84.4331 L8.51841,95.2152 z" fill="rgb(0,255,0)" stroke-width="0.418005" stroke="rgb(0,128,0)" />
	<path d = "M8.51841,95.2152 L23.9441,93.1045 L26.0723,105.241 z" fill="rgb(0,255,0)" stroke-width="0.418005" stroke="rgb(0,128,0)" />
	<path d = "M26.0723,105.241 L8.51841,95.2152 L8.36011,105.549 z" fill="rgb(0,255,0)" stroke-width="0.418005" stroke="rgb(0,128,0)" />
	<path d = "M8.36011,105.549 L26.0723,105.241 L9.15162,115.513 z" fill="rgb(0,255,0)" stroke-width="0.418005" stroke="rgb(0,128,0)" />
	<path d = "M9.15162,115.513 L26.0723,105.241 L29.1153,117.413 z" fill="rgb(0,255,0)" stroke-width="0.418005" stroke="rgb(0,128,0)" />
	<path d = "M29.1153,117.413 L9.15162,115.513 L11.0512,125.187 z" fill="rgb(0,255,0)" stroke-width="0.418005" stroke="rgb(0,128,0)" />
	<path d = "M11.0512,125.187 L29.1153,117.413 L32.9673,128.74 z" fill="rgb(0,255,0)" stroke-width="0.418005" stroke="rgb(0,128,0)" />
	<path d = "M32.9673,128.74 L11.0512,125.187 L14.2173,134.65 z" fill="rgb(0,255,0)" stroke-width="0.418005" stroke="rgb(0,128,0)" />
	<path d = "M14.2173,134.65 L32.9673,128.74 L37.5229,138.344 z" fill="rgb(0,255,0)" stroke-width="0.418005" stroke="rgb(0,128,0)" />
	<path d = "M37.5229,138.344 L14.2173,134.65 L19.0719,143.585 z" fill="rgb(0,255,0)" stroke-width="0.418005" stroke="rgb(0,128,0)" />
	<path d = "M19.0719,143.585 L37.5229,138.344 L42.6765,145.344 z" fill="rgb(0,255,0)" stroke-width="0.418005" stroke="rgb(0,128,0)" />
	<path d = "M42.6765,145.344 L19.0719,143.585 L48.2874,150.216 z" fill="rgb(0,255,0)" stroke-width="0.418005" stroke="rgb(0,128,0)" />
	<path d = "M48.2874,150.216 L19.0719,143.585 L26.0372,151.676 z" fill="rgb(0,255,0)" stroke-width="0.418005" stroke="rgb(0,128,0)" />
	<path d = "M26.0372,151.676 L48.2874,150.216 L54.2149,153.435 z" fill="rgb(0,255,0)" stroke-width="0.418005" stroke="rgb(0,128,0)" />
	<path d = "M54.2149,153.435 L26.0372,151.676 L60.3184,155.476 z" fill="rgb(0,255,0)" stroke-width="0.418005" stroke="rgb(0,128,0)" />
	<path d = "M60.3184,155.476 L26.0372,151.676 L66.457,156.812 z" fill="rgb(0,255,0)" stroke-width="0.418005" stroke="rgb(0,128,0)" />
	<path d = "M26.0372,151.676 L79.2267,157.797 L35.5353,158.606 z" fill="rgb(0,255,0)" stroke-width="0.418005" stroke="rgb(0,128,0)" />
	<path d = "M79.2267,157.797 L72.7275,157.551 L35.5353,158.606 z" fill="rgb(0,255,0)" stroke-width="0.418005" stroke="rgb(0,128,0)" />
	<path d = "M72.7275,157.551 L66.457,156.812 L35.5353,158.606 z" fill="rgb(0,255,0)" stroke-width="0.418005" stroke="rgb(0,128,0)" />
</svg>
